<svg xmlns="http://www.w3.org/2000/svg" viewBox="0 0 1536 1024" role="img" width="1536" height="1024">
  <title>Thomas Chatterton's Posthumous Rowley Poems – Retro Pixel Art Banner</title>

  <defs>
    <radialGradient id="crt" cx="50%" cy="50%" r="70%">
      <stop offset="0%" stop-color="#1a0a2e" />
      <stop offset="100%" stop-color="#000000" />
    </radialGradient>
    <radialGradient id="glowGold" cx="50%" cy="50%" r="50%">
      <stop offset="0%" stop-color="#ffe066" stop-opacity="0.4" />
      <stop offset="100%" stop-color="#ffe066" stop-opacity="0" />
    </radialGradient>
    <radialGradient id="glowPurple" cx="50%" cy="50%" r="50%">
      <stop offset="0%" stop-color="#b44fff" stop-opacity="0.3" />
      <stop offset="100%" stop-color="#b44fff" stop-opacity="0" />
    </radialGradient>
    <filter id="crtBlur">
      <feGaussianBlur stdDeviation="1.5" result="blur" />
      <feComposite in="SourceGraphic" in2="blur" operator="over" />
    </filter>
  </defs>

  
  <rect width="1536" height="1024" fill="url(#crt)" />

  
  <g opacity="0.08">
    <rect x="0" y="0" width="1536" height="2" fill="#ffffff" />
    <rect x="0" y="4" width="1536" height="2" fill="#ffffff" />
    <rect x="0" y="8" width="1536" height="2" fill="#ffffff" />
    <rect x="0" y="12" width="1536" height="2" fill="#ffffff" />
    <rect x="0" y="16" width="1536" height="2" fill="#ffffff" />
    <rect x="0" y="20" width="1536" height="2" fill="#ffffff" />
    <rect x="0" y="24" width="1536" height="2" fill="#ffffff" />
    <rect x="0" y="28" width="1536" height="2" fill="#ffffff" />
    <rect x="0" y="32" width="1536" height="2" fill="#ffffff" />
    <rect x="0" y="36" width="1536" height="2" fill="#ffffff" />
    <rect x="0" y="40" width="1536" height="2" fill="#ffffff" />
    <rect x="0" y="44" width="1536" height="2" fill="#ffffff" />
    <rect x="0" y="48" width="1536" height="2" fill="#ffffff" />
    <rect x="0" y="52" width="1536" height="2" fill="#ffffff" />
    <rect x="0" y="56" width="1536" height="2" fill="#ffffff" />
    <rect x="0" y="60" width="1536" height="2" fill="#ffffff" />
    <rect x="0" y="64" width="1536" height="2" fill="#ffffff" />
    <rect x="0" y="68" width="1536" height="2" fill="#ffffff" />
    <rect x="0" y="72" width="1536" height="2" fill="#ffffff" />
    <rect x="0" y="76" width="1536" height="2" fill="#ffffff" />
    <rect x="0" y="80" width="1536" height="2" fill="#ffffff" />
    <rect x="0" y="84" width="1536" height="2" fill="#ffffff" />
    <rect x="0" y="88" width="1536" height="2" fill="#ffffff" />
    <rect x="0" y="92" width="1536" height="2" fill="#ffffff" />
    <rect x="0" y="96" width="1536" height="2" fill="#ffffff" />
    <rect x="0" y="100" width="1536" height="2" fill="#ffffff" />
    <rect x="0" y="104" width="1536" height="2" fill="#ffffff" />
    <rect x="0" y="108" width="1536" height="2" fill="#ffffff" />
    <rect x="0" y="112" width="1536" height="2" fill="#ffffff" />
    <rect x="0" y="116" width="1536" height="2" fill="#ffffff" />
    <rect x="0" y="120" width="1536" height="2" fill="#ffffff" />
    <rect x="0" y="124" width="1536" height="2" fill="#ffffff" />
    <rect x="0" y="128" width="1536" height="2" fill="#ffffff" />
    <rect x="0" y="132" width="1536" height="2" fill="#ffffff" />
    <rect x="0" y="136" width="1536" height="2" fill="#ffffff" />
    <rect x="0" y="140" width="1536" height="2" fill="#ffffff" />
    <rect x="0" y="144" width="1536" height="2" fill="#ffffff" />
    <rect x="0" y="148" width="1536" height="2" fill="#ffffff" />
    <rect x="0" y="152" width="1536" height="2" fill="#ffffff" />
    <rect x="0" y="156" width="1536" height="2" fill="#ffffff" />
    <rect x="0" y="160" width="1536" height="2" fill="#ffffff" />
    <rect x="0" y="164" width="1536" height="2" fill="#ffffff" />
    <rect x="0" y="168" width="1536" height="2" fill="#ffffff" />
    <rect x="0" y="172" width="1536" height="2" fill="#ffffff" />
    <rect x="0" y="176" width="1536" height="2" fill="#ffffff" />
    <rect x="0" y="180" width="1536" height="2" fill="#ffffff" />
    <rect x="0" y="184" width="1536" height="2" fill="#ffffff" />
    <rect x="0" y="188" width="1536" height="2" fill="#ffffff" />
    <rect x="0" y="192" width="1536" height="2" fill="#ffffff" />
    <rect x="0" y="196" width="1536" height="2" fill="#ffffff" />
    <rect x="0" y="200" width="1536" height="2" fill="#ffffff" />
    <rect x="0" y="204" width="1536" height="2" fill="#ffffff" />
    <rect x="0" y="208" width="1536" height="2" fill="#ffffff" />
    <rect x="0" y="212" width="1536" height="2" fill="#ffffff" />
    <rect x="0" y="216" width="1536" height="2" fill="#ffffff" />
    <rect x="0" y="220" width="1536" height="2" fill="#ffffff" />
    <rect x="0" y="224" width="1536" height="2" fill="#ffffff" />
    <rect x="0" y="228" width="1536" height="2" fill="#ffffff" />
    <rect x="0" y="232" width="1536" height="2" fill="#ffffff" />
    <rect x="0" y="236" width="1536" height="2" fill="#ffffff" />
    <rect x="0" y="240" width="1536" height="2" fill="#ffffff" />
    <rect x="0" y="244" width="1536" height="2" fill="#ffffff" />
    <rect x="0" y="248" width="1536" height="2" fill="#ffffff" />
    <rect x="0" y="252" width="1536" height="2" fill="#ffffff" />
    <rect x="0" y="256" width="1536" height="2" fill="#ffffff" />
    <rect x="0" y="260" width="1536" height="2" fill="#ffffff" />
    <rect x="0" y="264" width="1536" height="2" fill="#ffffff" />
    <rect x="0" y="268" width="1536" height="2" fill="#ffffff" />
    <rect x="0" y="272" width="1536" height="2" fill="#ffffff" />
    <rect x="0" y="276" width="1536" height="2" fill="#ffffff" />
    <rect x="0" y="280" width="1536" height="2" fill="#ffffff" />
    <rect x="0" y="284" width="1536" height="2" fill="#ffffff" />
    <rect x="0" y="288" width="1536" height="2" fill="#ffffff" />
    <rect x="0" y="292" width="1536" height="2" fill="#ffffff" />
    <rect x="0" y="296" width="1536" height="2" fill="#ffffff" />
    <rect x="0" y="300" width="1536" height="2" fill="#ffffff" />
    <rect x="0" y="304" width="1536" height="2" fill="#ffffff" />
    <rect x="0" y="308" width="1536" height="2" fill="#ffffff" />
    <rect x="0" y="312" width="1536" height="2" fill="#ffffff" />
    <rect x="0" y="316" width="1536" height="2" fill="#ffffff" />
    <rect x="0" y="320" width="1536" height="2" fill="#ffffff" />
    <rect x="0" y="324" width="1536" height="2" fill="#ffffff" />
    <rect x="0" y="328" width="1536" height="2" fill="#ffffff" />
    <rect x="0" y="332" width="1536" height="2" fill="#ffffff" />
    <rect x="0" y="336" width="1536" height="2" fill="#ffffff" />
    <rect x="0" y="340" width="1536" height="2" fill="#ffffff" />
    <rect x="0" y="344" width="1536" height="2" fill="#ffffff" />
    <rect x="0" y="348" width="1536" height="2" fill="#ffffff" />
    <rect x="0" y="352" width="1536" height="2" fill="#ffffff" />
    <rect x="0" y="356" width="1536" height="2" fill="#ffffff" />
    <rect x="0" y="360" width="1536" height="2" fill="#ffffff" />
    <rect x="0" y="364" width="1536" height="2" fill="#ffffff" />
    <rect x="0" y="368" width="1536" height="2" fill="#ffffff" />
    <rect x="0" y="372" width="1536" height="2" fill="#ffffff" />
    <rect x="0" y="376" width="1536" height="2" fill="#ffffff" />
    <rect x="0" y="380" width="1536" height="2" fill="#ffffff" />
    <rect x="0" y="384" width="1536" height="2" fill="#ffffff" />
    <rect x="0" y="388" width="1536" height="2" fill="#ffffff" />
    <rect x="0" y="392" width="1536" height="2" fill="#ffffff" />
    <rect x="0" y="396" width="1536" height="2" fill="#ffffff" />
    <rect x="0" y="400" width="1536" height="2" fill="#ffffff" />
    <rect x="0" y="404" width="1536" height="2" fill="#ffffff" />
    <rect x="0" y="408" width="1536" height="2" fill="#ffffff" />
    <rect x="0" y="412" width="1536" height="2" fill="#ffffff" />
    <rect x="0" y="416" width="1536" height="2" fill="#ffffff" />
    <rect x="0" y="420" width="1536" height="2" fill="#ffffff" />
    <rect x="0" y="424" width="1536" height="2" fill="#ffffff" />
    <rect x="0" y="428" width="1536" height="2" fill="#ffffff" />
    <rect x="0" y="432" width="1536" height="2" fill="#ffffff" />
    <rect x="0" y="436" width="1536" height="2" fill="#ffffff" />
    <rect x="0" y="440" width="1536" height="2" fill="#ffffff" />
    <rect x="0" y="444" width="1536" height="2" fill="#ffffff" />
    <rect x="0" y="448" width="1536" height="2" fill="#ffffff" />
    <rect x="0" y="452" width="1536" height="2" fill="#ffffff" />
    <rect x="0" y="456" width="1536" height="2" fill="#ffffff" />
    <rect x="0" y="460" width="1536" height="2" fill="#ffffff" />
    <rect x="0" y="464" width="1536" height="2" fill="#ffffff" />
    <rect x="0" y="468" width="1536" height="2" fill="#ffffff" />
    <rect x="0" y="472" width="1536" height="2" fill="#ffffff" />
    <rect x="0" y="476" width="1536" height="2" fill="#ffffff" />
    <rect x="0" y="480" width="1536" height="2" fill="#ffffff" />
    <rect x="0" y="484" width="1536" height="2" fill="#ffffff" />
    <rect x="0" y="488" width="1536" height="2" fill="#ffffff" />
    <rect x="0" y="492" width="1536" height="2" fill="#ffffff" />
    <rect x="0" y="496" width="1536" height="2" fill="#ffffff" />
    <rect x="0" y="500" width="1536" height="2" fill="#ffffff" />
    <rect x="0" y="504" width="1536" height="2" fill="#ffffff" />
    <rect x="0" y="508" width="1536" height="2" fill="#ffffff" />
    <rect x="0" y="512" width="1536" height="2" fill="#ffffff" />
    <rect x="0" y="516" width="1536" height="2" fill="#ffffff" />
    <rect x="0" y="520" width="1536" height="2" fill="#ffffff" />
    <rect x="0" y="524" width="1536" height="2" fill="#ffffff" />
    <rect x="0" y="528" width="1536" height="2" fill="#ffffff" />
    <rect x="0" y="532" width="1536" height="2" fill="#ffffff" />
    <rect x="0" y="536" width="1536" height="2" fill="#ffffff" />
    <rect x="0" y="540" width="1536" height="2" fill="#ffffff" />
    <rect x="0" y="544" width="1536" height="2" fill="#ffffff" />
    <rect x="0" y="548" width="1536" height="2" fill="#ffffff" />
    <rect x="0" y="552" width="1536" height="2" fill="#ffffff" />
    <rect x="0" y="556" width="1536" height="2" fill="#ffffff" />
    <rect x="0" y="560" width="1536" height="2" fill="#ffffff" />
    <rect x="0" y="564" width="1536" height="2" fill="#ffffff" />
    <rect x="0" y="568" width="1536" height="2" fill="#ffffff" />
    <rect x="0" y="572" width="1536" height="2" fill="#ffffff" />
    <rect x="0" y="576" width="1536" height="2" fill="#ffffff" />
    <rect x="0" y="580" width="1536" height="2" fill="#ffffff" />
    <rect x="0" y="584" width="1536" height="2" fill="#ffffff" />
    <rect x="0" y="588" width="1536" height="2" fill="#ffffff" />
    <rect x="0" y="592" width="1536" height="2" fill="#ffffff" />
    <rect x="0" y="596" width="1536" height="2" fill="#ffffff" />
    <rect x="0" y="600" width="1536" height="2" fill="#ffffff" />
    <rect x="0" y="604" width="1536" height="2" fill="#ffffff" />
    <rect x="0" y="608" width="1536" height="2" fill="#ffffff" />
    <rect x="0" y="612" width="1536" height="2" fill="#ffffff" />
    <rect x="0" y="616" width="1536" height="2" fill="#ffffff" />
    <rect x="0" y="620" width="1536" height="2" fill="#ffffff" />
    <rect x="0" y="624" width="1536" height="2" fill="#ffffff" />
    <rect x="0" y="628" width="1536" height="2" fill="#ffffff" />
    <rect x="0" y="632" width="1536" height="2" fill="#ffffff" />
    <rect x="0" y="636" width="1536" height="2" fill="#ffffff" />
    <rect x="0" y="640" width="1536" height="2" fill="#ffffff" />
    <rect x="0" y="644" width="1536" height="2" fill="#ffffff" />
    <rect x="0" y="648" width="1536" height="2" fill="#ffffff" />
    <rect x="0" y="652" width="1536" height="2" fill="#ffffff" />
    <rect x="0" y="656" width="1536" height="2" fill="#ffffff" />
    <rect x="0" y="660" width="1536" height="2" fill="#ffffff" />
    <rect x="0" y="664" width="1536" height="2" fill="#ffffff" />
    <rect x="0" y="668" width="1536" height="2" fill="#ffffff" />
    <rect x="0" y="672" width="1536" height="2" fill="#ffffff" />
    <rect x="0" y="676" width="1536" height="2" fill="#ffffff" />
    <rect x="0" y="680" width="1536" height="2" fill="#ffffff" />
    <rect x="0" y="684" width="1536" height="2" fill="#ffffff" />
    <rect x="0" y="688" width="1536" height="2" fill="#ffffff" />
    <rect x="0" y="692" width="1536" height="2" fill="#ffffff" />
    <rect x="0" y="696" width="1536" height="2" fill="#ffffff" />
    <rect x="0" y="700" width="1536" height="2" fill="#ffffff" />
    <rect x="0" y="704" width="1536" height="2" fill="#ffffff" />
    <rect x="0" y="708" width="1536" height="2" fill="#ffffff" />
    <rect x="0" y="712" width="1536" height="2" fill="#ffffff" />
    <rect x="0" y="716" width="1536" height="2" fill="#ffffff" />
    <rect x="0" y="720" width="1536" height="2" fill="#ffffff" />
    <rect x="0" y="724" width="1536" height="2" fill="#ffffff" />
    <rect x="0" y="728" width="1536" height="2" fill="#ffffff" />
    <rect x="0" y="732" width="1536" height="2" fill="#ffffff" />
    <rect x="0" y="736" width="1536" height="2" fill="#ffffff" />
    <rect x="0" y="740" width="1536" height="2" fill="#ffffff" />
    <rect x="0" y="744" width="1536" height="2" fill="#ffffff" />
    <rect x="0" y="748" width="1536" height="2" fill="#ffffff" />
    <rect x="0" y="752" width="1536" height="2" fill="#ffffff" />
    <rect x="0" y="756" width="1536" height="2" fill="#ffffff" />
    <rect x="0" y="760" width="1536" height="2" fill="#ffffff" />
    <rect x="0" y="764" width="1536" height="2" fill="#ffffff" />
    <rect x="0" y="768" width="1536" height="2" fill="#ffffff" />
    <rect x="0" y="772" width="1536" height="2" fill="#ffffff" />
    <rect x="0" y="776" width="1536" height="2" fill="#ffffff" />
    <rect x="0" y="780" width="1536" height="2" fill="#ffffff" />
    <rect x="0" y="784" width="1536" height="2" fill="#ffffff" />
    <rect x="0" y="788" width="1536" height="2" fill="#ffffff" />
    <rect x="0" y="792" width="1536" height="2" fill="#ffffff" />
    <rect x="0" y="796" width="1536" height="2" fill="#ffffff" />
    <rect x="0" y="800" width="1536" height="2" fill="#ffffff" />
    <rect x="0" y="804" width="1536" height="2" fill="#ffffff" />
    <rect x="0" y="808" width="1536" height="2" fill="#ffffff" />
    <rect x="0" y="812" width="1536" height="2" fill="#ffffff" />
    <rect x="0" y="816" width="1536" height="2" fill="#ffffff" />
    <rect x="0" y="820" width="1536" height="2" fill="#ffffff" />
    <rect x="0" y="824" width="1536" height="2" fill="#ffffff" />
    <rect x="0" y="828" width="1536" height="2" fill="#ffffff" />
    <rect x="0" y="832" width="1536" height="2" fill="#ffffff" />
    <rect x="0" y="836" width="1536" height="2" fill="#ffffff" />
    <rect x="0" y="840" width="1536" height="2" fill="#ffffff" />
    <rect x="0" y="844" width="1536" height="2" fill="#ffffff" />
    <rect x="0" y="848" width="1536" height="2" fill="#ffffff" />
    <rect x="0" y="852" width="1536" height="2" fill="#ffffff" />
    <rect x="0" y="856" width="1536" height="2" fill="#ffffff" />
    <rect x="0" y="860" width="1536" height="2" fill="#ffffff" />
    <rect x="0" y="864" width="1536" height="2" fill="#ffffff" />
    <rect x="0" y="868" width="1536" height="2" fill="#ffffff" />
    <rect x="0" y="872" width="1536" height="2" fill="#ffffff" />
    <rect x="0" y="876" width="1536" height="2" fill="#ffffff" />
    <rect x="0" y="880" width="1536" height="2" fill="#ffffff" />
    <rect x="0" y="884" width="1536" height="2" fill="#ffffff" />
    <rect x="0" y="888" width="1536" height="2" fill="#ffffff" />
    <rect x="0" y="892" width="1536" height="2" fill="#ffffff" />
    <rect x="0" y="896" width="1536" height="2" fill="#ffffff" />
    <rect x="0" y="900" width="1536" height="2" fill="#ffffff" />
    <rect x="0" y="904" width="1536" height="2" fill="#ffffff" />
    <rect x="0" y="908" width="1536" height="2" fill="#ffffff" />
    <rect x="0" y="912" width="1536" height="2" fill="#ffffff" />
    <rect x="0" y="916" width="1536" height="2" fill="#ffffff" />
    <rect x="0" y="920" width="1536" height="2" fill="#ffffff" />
    <rect x="0" y="924" width="1536" height="2" fill="#ffffff" />
    <rect x="0" y="928" width="1536" height="2" fill="#ffffff" />
    <rect x="0" y="932" width="1536" height="2" fill="#ffffff" />
    <rect x="0" y="936" width="1536" height="2" fill="#ffffff" />
    <rect x="0" y="940" width="1536" height="2" fill="#ffffff" />
    <rect x="0" y="944" width="1536" height="2" fill="#ffffff" />
    <rect x="0" y="948" width="1536" height="2" fill="#ffffff" />
    <rect x="0" y="952" width="1536" height="2" fill="#ffffff" />
    <rect x="0" y="956" width="1536" height="2" fill="#ffffff" />
    <rect x="0" y="960" width="1536" height="2" fill="#ffffff" />
    <rect x="0" y="964" width="1536" height="2" fill="#ffffff" />
    <rect x="0" y="968" width="1536" height="2" fill="#ffffff" />
    <rect x="0" y="972" width="1536" height="2" fill="#ffffff" />
    <rect x="0" y="976" width="1536" height="2" fill="#ffffff" />
    <rect x="0" y="980" width="1536" height="2" fill="#ffffff" />
    <rect x="0" y="984" width="1536" height="2" fill="#ffffff" />
    <rect x="0" y="988" width="1536" height="2" fill="#ffffff" />
    <rect x="0" y="992" width="1536" height="2" fill="#ffffff" />
    <rect x="0" y="996" width="1536" height="2" fill="#ffffff" />
    <rect x="0" y="1000" width="1536" height="2" fill="#ffffff" />
    <rect x="0" y="1004" width="1536" height="2" fill="#ffffff" />
    <rect x="0" y="1008" width="1536" height="2" fill="#ffffff" />
    <rect x="0" y="1012" width="1536" height="2" fill="#ffffff" />
    <rect x="0" y="1016" width="1536" height="2" fill="#ffffff" />
    <rect x="0" y="1020" width="1536" height="2" fill="#ffffff" />
  </g>

  
  <rect x="80" y="60" width="8" height="8" fill="#ffe066" opacity="0.7" />
  <rect x="200" y="120" width="6" height="6" fill="#00e5ff" opacity="0.6" />
  <rect x="350" y="40" width="8" height="8" fill="#ff66aa" opacity="0.5" />
  <rect x="500" y="90" width="6" height="6" fill="#ffe066" opacity="0.5" />
  <rect x="650" y="30" width="8" height="8" fill="#00e5ff" opacity="0.6" />
  <rect x="900" y="70" width="6" height="6" fill="#ffe066" opacity="0.7" />
  <rect x="1050" y="45" width="8" height="8" fill="#ff66aa" opacity="0.5" />
  <rect x="1200" y="100" width="6" height="6" fill="#00e5ff" opacity="0.6" />
  <rect x="1380" y="55" width="8" height="8" fill="#ffe066" opacity="0.6" />
  <rect x="130" y="900" width="8" height="8" fill="#ff66aa" opacity="0.4" />
  <rect x="400" y="950" width="6" height="6" fill="#ffe066" opacity="0.5" />
  <rect x="700" y="970" width="8" height="8" fill="#00e5ff" opacity="0.4" />
  <rect x="1100" y="920" width="6" height="6" fill="#ff66aa" opacity="0.5" />
  <rect x="1400" y="940" width="8" height="8" fill="#ffe066" opacity="0.4" />

  
  <ellipse cx="768" cy="512" rx="700" ry="450" fill="url(#glowGold)" />

  
  
  
  <rect x="220" y="180" width="520" height="640" fill="#c8a96e" rx="0" />
  
  <rect x="220" y="180" width="520" height="16" fill="#b8955a" />
  <rect x="220" y="196" width="520" height="8" fill="#c8a96e" />
  <rect x="220" y="204" width="520" height="8" fill="#b8955a" />
  <rect x="220" y="780" width="520" height="16" fill="#b8955a" />
  <rect x="220" y="796" width="520" height="16" fill="#c8a96e" />
  <rect x="220" y="812" width="520" height="8" fill="#b8955a" />
  
  <rect x="220" y="180" width="16" height="640" fill="#9a7440" />
  
  <rect x="724" y="180" width="16" height="640" fill="#9a7440" />

  
  <rect x="796" y="180" width="520" height="640" fill="#c8a96e" rx="0" />
  <rect x="796" y="180" width="520" height="16" fill="#b8955a" />
  <rect x="796" y="196" width="520" height="8" fill="#c8a96e" />
  <rect x="796" y="204" width="520" height="8" fill="#b8955a" />
  <rect x="796" y="780" width="520" height="16" fill="#b8955a" />
  <rect x="796" y="796" width="520" height="16" fill="#c8a96e" />
  <rect x="796" y="812" width="520" height="8" fill="#b8955a" />
  <rect x="1300" y="180" width="16" height="640" fill="#9a7440" />

  
  <rect x="736" y="170" width="64" height="660" fill="#7a5a28" />
  <rect x="744" y="170" width="8" height="660" fill="#9a7440" />
  <rect x="784" y="170" width="8" height="660" fill="#9a7440" />

  
  <rect x="210" y="820" width="540" height="20" fill="#6a4a18" />
  <rect x="786" y="820" width="540" height="20" fill="#6a4a18" />
  <rect x="210" y="170" width="540" height="16" fill="#6a4a18" />
  <rect x="786" y="170" width="540" height="16" fill="#6a4a18" />

  
  
  <rect x="330" y="230" width="80" height="8" fill="#8b6914" />
  <rect x="322" y="238" width="96" height="8" fill="#8b6914" />
  <rect x="338" y="246" width="64" height="48" fill="#e8c49a" />
  <rect x="330" y="246" width="8" height="48" fill="#8b6914" />
  <rect x="402" y="246" width="8" height="48" fill="#8b6914" />
  
  <rect x="350" y="258" width="8" height="8" fill="#2a1a08" />
  <rect x="382" y="258" width="8" height="8" fill="#2a1a08" />
  
  <rect x="358" y="278" width="24" height="6" fill="#c4895a" />
  
  <rect x="306" y="294" width="128" height="120" fill="#5a3e8a" />
  <rect x="298" y="302" width="16" height="96" fill="#5a3e8a" />
  <rect x="426" y="302" width="16" height="96" fill="#5a3e8a" />
  
  <rect x="314" y="294" width="16" height="120" fill="#7a5eaa" />
  
  <rect x="282" y="380" width="80" height="24" fill="#5a3e8a" />
  <rect x="378" y="380" width="80" height="24" fill="#5a3e8a" />
  
  <rect x="306" y="370" width="128" height="80" fill="#dfc484" />
  <rect x="306" y="370" width="128" height="8" fill="#b8955a" />
  <rect x="306" y="442" width="128" height="8" fill="#b8955a" />
  
  <rect x="318" y="386" width="96" height="6" fill="#5a3e1a" opacity="0.7" />
  <rect x="318" y="398" width="80" height="6" fill="#5a3e1a" opacity="0.7" />
  <rect x="318" y="410" width="96" height="6" fill="#5a3e1a" opacity="0.7" />
  <rect x="318" y="422" width="64" height="6" fill="#5a3e1a" opacity="0.7" />

  
  
  <rect x="500" y="230" width="8" height="130" fill="#ffe066" transform="rotate(-30 504 295)" />
  <rect x="502" y="228" width="6" height="120" fill="#fff3a0" transform="rotate(-30 505 288)" />
  
  <rect x="468" y="318" width="8" height="32" fill="#2a1a08" transform="rotate(-30 472 334)" />
  
  <rect x="456" y="348" width="8" height="8" fill="#1a0050" />
  <rect x="452" y="356" width="16" height="6" fill="#1a0050" />

  
  
  <rect x="232" y="580" width="200" height="80" fill="none" stroke="#ff2244" stroke-width="8" opacity="0.8" />
  <rect x="240" y="588" width="184" height="64" fill="none" stroke="#ff2244" stroke-width="4" opacity="0.6" />
  <text x="332" y="635" font-family="monospace" font-size="28" font-weight="900" fill="#ff2244" text-anchor="middle" opacity="0.9" transform="rotate(-15 332 625)" letter-spacing="3">FORGERY</text>

  
  <rect x="240" y="490" width="200" height="6" fill="#5a3e1a" opacity="0.5" />
  <rect x="240" y="502" width="180" height="6" fill="#5a3e1a" opacity="0.5" />
  <rect x="240" y="514" width="200" height="6" fill="#5a3e1a" opacity="0.5" />
  <rect x="240" y="526" width="160" height="6" fill="#5a3e1a" opacity="0.5" />
  <rect x="240" y="538" width="200" height="6" fill="#5a3e1a" opacity="0.5" />
  <rect x="240" y="550" width="190" height="6" fill="#5a3e1a" opacity="0.5" />

  
  
  <rect x="560" y="690" width="80" height="64" fill="#ffe066" />
  <rect x="552" y="698" width="96" height="48" fill="#ffe066" />
  
  <rect x="568" y="706" width="20" height="20" fill="#1a0a2e" />
  <rect x="612" y="706" width="20" height="20" fill="#1a0a2e" />
  
  <rect x="592" y="726" width="16" height="12" fill="#1a0a2e" />
  
  <rect x="568" y="746" width="12" height="12" fill="#1a0a2e" />
  <rect x="584" y="746" width="12" height="12" fill="#1a0a2e" />
  <rect x="600" y="746" width="12" height="12" fill="#1a0a2e" />
  <rect x="616" y="746" width="12" height="12" fill="#1a0a2e" />
  
  <rect x="560" y="754" width="80" height="16" fill="#ffe066" />
  
  <text x="600" y="790" font-family="monospace" font-size="18" fill="#ff2244" text-anchor="middle" font-weight="bold">1770</text>

  
  
  <rect x="836" y="500" width="96" height="240" fill="#6699cc" />
  <rect x="836" y="500" width="16" height="240" fill="#4477aa" />
  
  <rect x="836" y="476" width="16" height="24" fill="#6699cc" />
  <rect x="860" y="476" width="16" height="24" fill="#6699cc" />
  <rect x="884" y="476" width="16" height="24" fill="#6699cc" />
  <rect x="908" y="476" width="16" height="24" fill="#6699cc" />
  
  <rect x="868" y="560" width="32" height="48" fill="#1a0a2e" />
  <rect x="876" y="552" width="16" height="8" fill="#1a0a2e" />
  
  <rect x="868" y="692" width="32" height="48" fill="#1a0a2e" />
  <rect x="876" y="684" width="16" height="8" fill="#1a0a2e" />
  
  <rect x="800" y="740" width="200" height="16" fill="#4a7a30" />
  <rect x="800" y="756" width="200" height="8" fill="#3a6a20" />

  
  <ellipse cx="980" cy="280" rx="70" ry="70" fill="#ffe066" opacity="0.2" />
  <ellipse cx="980" cy="280" rx="50" ry="50" fill="#ffe066" opacity="0.3" />
  
  <rect x="948" y="248" width="64" height="64" fill="#fff8cc" />
  <rect x="940" y="256" width="80" height="48" fill="#fff8cc" />
  
  <rect x="956" y="260" width="12" height="12" fill="#e8d870" opacity="0.8" />
  <rect x="980" y="274" width="16" height="16" fill="#e8d870" opacity="0.7" />
  <rect x="964" y="286" width="8" height="8" fill="#e8d870" opacity="0.6" />

  
  <rect x="808" y="220" width="8" height="8" fill="#ffe066" opacity="0.9" />
  <rect x="840" y="250" width="6" height="6" fill="#ffffff" opacity="0.8" />
  <rect x="900" y="210" width="8" height="8" fill="#ffffff" opacity="0.7" />
  <rect x="950" y="240" width="6" height="6" fill="#ffe066" opacity="0.8" />
  <rect x="1050" y="220" width="8" height="8" fill="#ffffff" opacity="0.7" />
  <rect x="1100" y="250" width="6" height="6" fill="#ffe066" opacity="0.9" />
  <rect x="1150" y="210" width="8" height="8" fill="#ffffff" opacity="0.6" />
  <rect x="1200" y="240" width="6" height="6" fill="#ffe066" opacity="0.7" />
  <rect x="1250" y="220" width="8" height="8" fill="#ffffff" opacity="0.8" />

  
  <rect x="1020" y="500" width="240" height="8" fill="#5a3e1a" opacity="0.5" />
  <rect x="1020" y="516" width="200" height="8" fill="#5a3e1a" opacity="0.5" />
  <rect x="1020" y="532" width="240" height="8" fill="#5a3e1a" opacity="0.5" />
  <rect x="1020" y="548" width="180" height="8" fill="#5a3e1a" opacity="0.5" />
  <rect x="1020" y="564" width="240" height="8" fill="#5a3e1a" opacity="0.5" />
  <rect x="1020" y="580" width="220" height="8" fill="#5a3e1a" opacity="0.5" />
  <rect x="1020" y="596" width="240" height="8" fill="#5a3e1a" opacity="0.5" />
  <rect x="1020" y="612" width="160" height="8" fill="#5a3e1a" opacity="0.5" />
  <rect x="1020" y="628" width="240" height="8" fill="#5a3e1a" opacity="0.5" />
  <rect x="1020" y="644" width="200" height="8" fill="#5a3e1a" opacity="0.5" />
  <rect x="1020" y="660" width="240" height="8" fill="#5a3e1a" opacity="0.5" />
  <rect x="1020" y="676" width="180" height="8" fill="#5a3e1a" opacity="0.5" />
  <rect x="1020" y="692" width="240" height="8" fill="#5a3e1a" opacity="0.5" />
  <rect x="1020" y="708" width="220" height="8" fill="#5a3e1a" opacity="0.5" />
  <rect x="1020" y="724" width="240" height="8" fill="#5a3e1a" opacity="0.5" />
  <rect x="1020" y="740" width="140" height="8" fill="#5a3e1a" opacity="0.5" />

  
  <rect x="812" y="498" width="80" height="80" fill="#b44fff" />
  <rect x="820" y="506" width="64" height="64" fill="#9922dd" />
  
  <rect x="832" y="514" width="8" height="48" fill="#ffe066" />
  <rect x="840" y="514" width="24" height="8" fill="#ffe066" />
  <rect x="864" y="514" width="8" height="24" fill="#ffe066" />
  <rect x="840" y="530" width="24" height="8" fill="#ffe066" />
  <rect x="848" y="538" width="8" height="8" fill="#ffe066" />
  <rect x="856" y="546" width="8" height="16" fill="#ffe066" />
  <rect x="864" y="554" width="8" height="8" fill="#ffe066" />

  
  
  <rect x="0" y="0" width="1536" height="48" fill="#2a0a5a" />
  <rect x="0" y="40" width="1536" height="8" fill="#b44fff" />
  
  <rect x="0" y="0" width="32" height="40" fill="#b44fff" />
  <rect x="40" y="0" width="32" height="40" fill="#7700cc" />
  <rect x="80" y="0" width="32" height="40" fill="#b44fff" />
  <rect x="120" y="0" width="32" height="40" fill="#7700cc" />
  <rect x="160" y="0" width="32" height="40" fill="#b44fff" />
  <rect x="200" y="0" width="32" height="40" fill="#7700cc" />
  <rect x="240" y="0" width="32" height="40" fill="#b44fff" />
  <rect x="280" y="0" width="32" height="40" fill="#7700cc" />
  <rect x="320" y="0" width="32" height="40" fill="#b44fff" />
  <rect x="360" y="0" width="32" height="40" fill="#7700cc" />
  <rect x="400" y="0" width="32" height="40" fill="#b44fff" />
  <rect x="440" y="0" width="32" height="40" fill="#7700cc" />
  <rect x="480" y="0" width="32" height="40" fill="#b44fff" />
  <rect x="520" y="0" width="32" height="40" fill="#7700cc" />
  <rect x="560" y="0" width="32" height="40" fill="#b44fff" />
  <rect x="600" y="0" width="32" height="40" fill="#7700cc" />
  <rect x="640" y="0" width="32" height="40" fill="#b44fff" />
  <rect x="680" y="0" width="32" height="40" fill="#7700cc" />
  <rect x="720" y="0" width="32" height="40" fill="#b44fff" />
  <rect x="760" y="0" width="32" height="40" fill="#7700cc" />
  <rect x="800" y="0" width="32" height="40" fill="#b44fff" />
  <rect x="840" y="0" width="32" height="40" fill="#7700cc" />
  <rect x="880" y="0" width="32" height="40" fill="#b44fff" />
  <rect x="920" y="0" width="32" height="40" fill="#7700cc" />
  <rect x="960" y="0" width="32" height="40" fill="#b44fff" />
  <rect x="1000" y="0" width="32" height="40" fill="#7700cc" />
  <rect x="1040" y="0" width="32" height="40" fill="#b44fff" />
  <rect x="1080" y="0" width="32" height="40" fill="#7700cc" />
  <rect x="1120" y="0" width="32" height="40" fill="#b44fff" />
  <rect x="1160" y="0" width="32" height="40" fill="#7700cc" />
  <rect x="1200" y="0" width="32" height="40" fill="#b44fff" />
  <rect x="1240" y="0" width="32" height="40" fill="#7700cc" />
  <rect x="1280" y="0" width="32" height="40" fill="#b44fff" />
  <rect x="1320" y="0" width="32" height="40" fill="#7700cc" />
  <rect x="1360" y="0" width="32" height="40" fill="#b44fff" />
  <rect x="1400" y="0" width="32" height="40" fill="#7700cc" />
  <rect x="1440" y="0" width="32" height="40" fill="#b44fff" />
  <rect x="1480" y="0" width="32" height="40" fill="#7700cc" />
  <rect x="1520" y="0" width="16" height="40" fill="#b44fff" />

  
  <rect x="0" y="976" width="1536" height="48" fill="#2a0a5a" />
  <rect x="0" y="976" width="1536" height="8" fill="#b44fff" />
  <rect x="0" y="984" width="32" height="40" fill="#7700cc" />
  <rect x="40" y="984" width="32" height="40" fill="#b44fff" />
  <rect x="80" y="984" width="32" height="40" fill="#7700cc" />
  <rect x="120" y="984" width="32" height="40" fill="#b44fff" />
  <rect x="160" y="984" width="32" height="40" fill="#7700cc" />
  <rect x="200" y="984" width="32" height="40" fill="#b44fff" />
  <rect x="240" y="984" width="32" height="40" fill="#7700cc" />
  <rect x="280" y="984" width="32" height="40" fill="#b44fff" />
  <rect x="320" y="984" width="32" height="40" fill="#7700cc" />
  <rect x="360" y="984" width="32" height="40" fill="#b44fff" />
  <rect x="400" y="984" width="32" height="40" fill="#7700cc" />
  <rect x="440" y="984" width="32" height="40" fill="#b44fff" />
  <rect x="480" y="984" width="32" height="40" fill="#7700cc" />
  <rect x="520" y="984" width="32" height="40" fill="#b44fff" />
  <rect x="560" y="984" width="32" height="40" fill="#7700cc" />
  <rect x="600" y="984" width="32" height="40" fill="#b44fff" />
  <rect x="640" y="984" width="32" height="40" fill="#7700cc" />
  <rect x="680" y="984" width="32" height="40" fill="#b44fff" />
  <rect x="720" y="984" width="32" height="40" fill="#7700cc" />
  <rect x="760" y="984" width="32" height="40" fill="#b44fff" />
  <rect x="800" y="984" width="32" height="40" fill="#7700cc" />
  <rect x="840" y="984" width="32" height="40" fill="#b44fff" />
  <rect x="880" y="984" width="32" height="40" fill="#7700cc" />
  <rect x="920" y="984" width="32" height="40" fill="#b44fff" />
  <rect x="960" y="984" width="32" height="40" fill="#7700cc" />
  <rect x="1000" y="984" width="32" height="40" fill="#b44fff" />
  <rect x="1040" y="984" width="32" height="40" fill="#7700cc" />
  <rect x="1080" y="984" width="32" height="40" fill="#b44fff" />
  <rect x="1120" y="984" width="32" height="40" fill="#7700cc" />
  <rect x="1160" y="984" width="32" height="40" fill="#b44fff" />
  <rect x="1200" y="984" width="32" height="40" fill="#7700cc" />
  <rect x="1240" y="984" width="32" height="40" fill="#b44fff" />
  <rect x="1280" y="984" width="32" height="40" fill="#7700cc" />
  <rect x="1320" y="984" width="32" height="40" fill="#b44fff" />
  <rect x="1360" y="984" width="32" height="40" fill="#7700cc" />
  <rect x="1400" y="984" width="32" height="40" fill="#b44fff" />
  <rect x="1440" y="984" width="32" height="40" fill="#7700cc" />
  <rect x="1480" y="984" width="32" height="40" fill="#b44fff" />
  <rect x="1520" y="984" width="16" height="40" fill="#7700cc" />

  
  <rect x="0" y="0" width="48" height="1024" fill="#2a0a5a" opacity="0.6" />
  <rect x="1488" y="0" width="48" height="1024" fill="#2a0a5a" opacity="0.6" />
  <rect x="40" y="0" width="8" height="1024" fill="#b44fff" opacity="0.8" />
  <rect x="1488" y="0" width="8" height="1024" fill="#b44fff" opacity="0.8" />

  
  
  <text x="768" y="96" font-family="'Courier New', Courier, monospace" font-size="20" fill="#ffe066" text-anchor="middle" letter-spacing="8" opacity="0.6">▓ PIXEL HISTORY ARCADE ▓</text>

  
  
  <text x="772" y="882" font-family="'Courier New', Courier, monospace" font-size="56" font-weight="900" fill="#ffe066" text-anchor="middle" opacity="0.25" letter-spacing="2">Thomas Chatterton's</text>
  <text x="772" y="942" font-family="'Courier New', Courier, monospace" font-size="56" font-weight="900" fill="#ffe066" text-anchor="middle" opacity="0.25" letter-spacing="2">Posthumous Rowley Poems</text>

  
  <text x="768" y="880" font-family="'Courier New', Courier, monospace" font-size="54" font-weight="900" fill="#ffe066" text-anchor="middle" letter-spacing="2">Thomas Chatterton's</text>
  <text x="768" y="940" font-family="'Courier New', Courier, monospace" font-size="50" font-weight="900" fill="#00e5ff" text-anchor="middle" letter-spacing="1">Posthumous Rowley Poems</text>

  
  <rect x="300" y="954" width="936" height="36" fill="#b44fff" opacity="0.8" />
  <text x="768" y="979" font-family="'Courier New', Courier, monospace" font-size="22" fill="#ffffff" text-anchor="middle" letter-spacing="4" font-weight="bold">BRISTOL 1752 · LONDON 1777 · FORGERY LEGENDARY</text>

  
  <rect x="64" y="856" width="16" height="100" fill="#ffe066" opacity="0.7" />
  <rect x="64" y="856" width="60" height="16" fill="#ffe066" opacity="0.7" />
  <rect x="64" y="940" width="60" height="16" fill="#ffe066" opacity="0.7" />
  <rect x="1456" y="856" width="16" height="100" fill="#ffe066" opacity="0.7" />
  <rect x="1412" y="856" width="60" height="16" fill="#ffe066" opacity="0.7" />
  <rect x="1412" y="940" width="60" height="16" fill="#ffe066" opacity="0.7" />

  
  <rect x="0" y="0" width="1536" height="1024" fill="url(#glowPurple)" opacity="0.3" />

  
  <rect x="1390" y="760" width="24" height="32" fill="#00e5ff" opacity="0.9" />
</svg>