<svg xmlns="http://www.w3.org/2000/svg" viewBox="0 0 1536 1024" role="img" width="1536" height="1024">
  <title>Treaty of Long Island of the Holston — Retro Pixel Art Banner</title>

  <defs>
    
    <pattern id="scanlines" x="0" y="0" width="2" height="4" patternUnits="userSpaceOnUse">
      <rect x="0" y="0" width="2" height="2" fill="rgba(0,0,0,0.18)" />
      <rect x="0" y="2" width="2" height="2" fill="rgba(0,0,0,0)" />
    </pattern>
    
    <radialGradient id="crtGlow" cx="50%" cy="50%" r="60%">
      <stop offset="0%" stop-color="#00ffcc" stop-opacity="0.07" />
      <stop offset="100%" stop-color="#000033" stop-opacity="0.55" />
    </radialGradient>
    
    <linearGradient id="skyGrad" x1="0" y1="0" x2="0" y2="1">
      <stop offset="0%" stop-color="#0a0a2e" />
      <stop offset="60%" stop-color="#1a1a6e" />
      <stop offset="100%" stop-color="#2d2d8e" />
    </linearGradient>
    
    <linearGradient id="riverGrad" x1="0" y1="0" x2="0" y2="1">
      <stop offset="0%" stop-color="#00aaff" />
      <stop offset="100%" stop-color="#0055cc" />
    </linearGradient>
    
    <linearGradient id="islandGrad" x1="0" y1="0" x2="0" y2="1">
      <stop offset="0%" stop-color="#44cc44" />
      <stop offset="100%" stop-color="#228822" />
    </linearGradient>
  </defs>

  
  <rect width="1536" height="1024" fill="url(#skyGrad)" />

  
  <rect x="80" y="40" width="6" height="6" fill="#ffffff" />
  <rect x="200" y="80" width="4" height="4" fill="#ffff88" />
  <rect x="350" y="30" width="6" height="6" fill="#ffffff" />
  <rect x="500" y="60" width="4" height="4" fill="#aaffff" />
  <rect x="640" y="25" width="6" height="6" fill="#ffffff" />
  <rect x="780" y="70" width="4" height="4" fill="#ffff88" />
  <rect x="900" y="35" width="6" height="6" fill="#ffffff" />
  <rect x="1050" y="55" width="4" height="4" fill="#aaffff" />
  <rect x="1180" y="28" width="6" height="6" fill="#ffffff" />
  <rect x="1320" y="75" width="4" height="4" fill="#ffff88" />
  <rect x="1450" y="42" width="6" height="6" fill="#ffffff" />
  <rect x="140" y="140" width="4" height="4" fill="#ffff88" />
  <rect x="420" y="110" width="4" height="4" fill="#ffffff" />
  <rect x="700" y="130" width="4" height="4" fill="#aaffff" />
  <rect x="960" y="100" width="4" height="4" fill="#ffff88" />
  <rect x="1240" y="120" width="4" height="4" fill="#ffffff" />

  
  
  <rect x="1340" y="60" width="80" height="80" fill="#ffee00" />
  <rect x="1330" y="70" width="100" height="60" fill="#ffee00" />
  <rect x="1350" y="50" width="60" height="100" fill="#ffee00" />
  
  <rect x="1310" y="92" width="20" height="8" fill="#ffcc00" />
  <rect x="1410" y="92" width="20" height="8" fill="#ffcc00" />
  <rect x="1370" y="40" width="20" height="16" fill="#ffcc00" />
  <rect x="1370" y="136" width="20" height="16" fill="#ffcc00" />
  <rect x="1318" y="60" width="16" height="16" fill="#ffcc00" />
  <rect x="1318" y="116" width="16" height="16" fill="#ffcc00" />
  <rect x="1406" y="60" width="16" height="16" fill="#ffcc00" />
  <rect x="1406" y="116" width="16" height="16" fill="#ffcc00" />
  
  <rect x="1325" y="55" width="110" height="110" fill="none" stroke="#ffee00" stroke-width="4" opacity="0.3" />

  
  
  <rect x="0" y="340" width="60" height="380" fill="#1a3a1a" />
  <rect x="60" y="300" width="60" height="420" fill="#1a3a1a" />
  <rect x="120" y="260" width="60" height="460" fill="#1a3a1a" />
  <rect x="180" y="240" width="60" height="480" fill="#1a3a1a" />
  <rect x="240" y="220" width="60" height="500" fill="#1a3a1a" />
  <rect x="300" y="240" width="60" height="480" fill="#1a3a1a" />
  <rect x="360" y="280" width="60" height="440" fill="#1a3a1a" />
  <rect x="420" y="310" width="60" height="410" fill="#1a3a1a" />
  
  <rect x="240" y="220" width="20" height="20" fill="#2a5a2a" />
  <rect x="180" y="240" width="20" height="20" fill="#2a5a2a" />
  <rect x="120" y="260" width="20" height="20" fill="#2a5a2a" />

  
  <rect x="1100" y="320" width="60" height="400" fill="#1a3a1a" />
  <rect x="1160" y="280" width="60" height="440" fill="#1a3a1a" />
  <rect x="1220" y="250" width="60" height="470" fill="#1a3a1a" />
  <rect x="1280" y="230" width="60" height="490" fill="#1a3a1a" />
  <rect x="1340" y="250" width="60" height="470" fill="#1a3a1a" />
  <rect x="1400" y="290" width="60" height="430" fill="#1a3a1a" />
  <rect x="1460" y="330" width="76" height="390" fill="#1a3a1a" />
  
  <rect x="1280" y="230" width="20" height="20" fill="#2a5a2a" />
  <rect x="1220" y="250" width="20" height="20" fill="#2a5a2a" />

  
  
  <rect x="0" y="520" width="1536" height="60" fill="#2d5a1a" />
  <rect x="0" y="540" width="1536" height="60" fill="#1a3a0a" />

  
  <rect x="0" y="580" width="1536" height="200" fill="url(#riverGrad)" />
  
  <rect x="60" y="600" width="80" height="8" fill="#55ccff" opacity="0.5" />
  <rect x="240" y="620" width="60" height="8" fill="#55ccff" opacity="0.4" />
  <rect x="400" y="608" width="100" height="8" fill="#55ccff" opacity="0.5" />
  <rect x="600" y="630" width="80" height="8" fill="#55ccff" opacity="0.4" />
  <rect x="800" y="598" width="60" height="8" fill="#55ccff" opacity="0.5" />
  <rect x="1000" y="618" width="90" height="8" fill="#55ccff" opacity="0.4" />
  <rect x="1200" y="604" width="70" height="8" fill="#55ccff" opacity="0.5" />
  <rect x="1380" y="625" width="80" height="8" fill="#55ccff" opacity="0.4" />

  
  
  <rect x="480" y="590" width="576" height="180" fill="url(#islandGrad)" />
  <rect x="460" y="610" width="616" height="140" fill="url(#islandGrad)" />
  <rect x="500" y="580" width="536" height="20" fill="#33aa33" />
  <rect x="480" y="760" width="576" height="20" fill="#228822" />
  
  <rect x="460" y="750" width="616" height="14" fill="#aa8833" />
  <rect x="480" y="764" width="576" height="10" fill="#aa8833" />
  
  <rect x="510" y="600" width="12" height="12" fill="#55dd55" />
  <rect x="560" y="595" width="10" height="10" fill="#55dd55" />
  <rect x="700" y="602" width="12" height="12" fill="#55dd55" />
  <rect x="850" y="598" width="10" height="10" fill="#55dd55" />
  <rect x="980" y="604" width="12" height="12" fill="#55dd55" />

  
  
  <rect x="520" y="530" width="20" height="80" fill="#663300" />
  <rect x="500" y="480" width="60" height="60" fill="#22aa22" />
  <rect x="510" y="450" width="40" height="40" fill="#33cc33" />
  <rect x="520" y="430" width="20" height="30" fill="#44ee44" />

  
  <rect x="630" y="540" width="18" height="70" fill="#663300" />
  <rect x="612" y="490" width="54" height="60" fill="#22aa22" />
  <rect x="621" y="462" width="36" height="38" fill="#33cc33" />
  <rect x="630" y="444" width="18" height="26" fill="#44ee44" />

  
  <rect x="960" y="535" width="20" height="75" fill="#663300" />
  <rect x="940" y="485" width="60" height="60" fill="#22aa22" />
  <rect x="950" y="456" width="40" height="38" fill="#33cc33" />
  <rect x="960" y="438" width="20" height="26" fill="#44ee44" />

  
  <rect x="1050" y="545" width="18" height="65" fill="#663300" />
  <rect x="1032" y="496" width="54" height="58" fill="#22aa22" />
  <rect x="1041" y="468" width="36" height="36" fill="#33cc33" />

  
  <rect x="760" y="680" width="16" height="30" fill="#aa5500" />
  <rect x="748" y="690" width="40" height="20" fill="#884400" />
  
  <rect x="756" y="660" width="8" height="20" fill="#ff4400" />
  <rect x="764" y="650" width="8" height="30" fill="#ff6600" />
  <rect x="772" y="658" width="8" height="22" fill="#ff4400" />
  <rect x="760" y="644" width="8" height="18" fill="#ffaa00" />
  <rect x="768" y="640" width="8" height="16" fill="#ffcc00" />
  
  <rect x="744" y="636" width="48" height="48" fill="none" stroke="#ff6600" stroke-width="3" opacity="0.4" />
  <rect x="736" y="628" width="64" height="64" fill="none" stroke="#ff8800" stroke-width="2" opacity="0.2" />

  

  
  
  <rect x="640" y="660" width="20" height="20" fill="#cc8844" />
  
  <rect x="638" y="644" width="6" height="20" fill="#ff2200" />
  <rect x="644" y="638" width="6" height="24" fill="#ffaa00" />
  <rect x="650" y="634" width="6" height="28" fill="#ff2200" />
  <rect x="656" y="638" width="6" height="24" fill="#ffaa00" />
  
  <rect x="636" y="680" width="28" height="36" fill="#884422" />
  
  <rect x="636" y="716" width="12" height="24" fill="#664411" />
  <rect x="652" y="716" width="12" height="24" fill="#664411" />

  
  <rect x="696" y="655" width="20" height="20" fill="#cc8844" />
  <rect x="694" y="640" width="6" height="18" fill="#00cc44" />
  <rect x="700" y="634" width="6" height="24" fill="#ffaa00" />
  <rect x="706" y="638" width="6" height="20" fill="#00cc44" />
  <rect x="692" y="675" width="28" height="36" fill="#996633" />
  <rect x="692" y="711" width="12" height="22" fill="#774422" />
  <rect x="708" y="711" width="12" height="22" fill="#774422" />

  
  
  <rect x="840" y="648" width="22" height="8" fill="#222222" />
  <rect x="836" y="644" width="30" height="10" fill="#333333" />
  <rect x="840" y="658" width="22" height="20" fill="#ddbb99" />
  
  <rect x="836" y="678" width="30" height="38" fill="#2244aa" />
  
  <rect x="844" y="678" width="14" height="8" fill="#ffffff" />
  
  <rect x="838" y="716" width="12" height="24" fill="#886644" />
  <rect x="854" y="716" width="12" height="24" fill="#886644" />

  
  <rect x="896" y="642" width="22" height="8" fill="#222222" />
  <rect x="892" y="638" width="30" height="10" fill="#333333" />
  <rect x="896" y="650" width="22" height="20" fill="#ddbb99" />
  <rect x="892" y="670" width="30" height="40" fill="#883322" />
  <rect x="900" y="670" width="14" height="8" fill="#ffffff" />
  <rect x="894" y="710" width="12" height="26" fill="#886644" />
  <rect x="910" y="710" width="12" height="26" fill="#886644" />

  
  <rect x="752" y="714" width="32" height="22" fill="#eeddaa" />
  <rect x="754" y="716" width="28" height="3" fill="#886633" />
  <rect x="754" y="721" width="28" height="3" fill="#886633" />
  <rect x="754" y="726" width="20" height="3" fill="#886633" />
  <rect x="748" y="712" width="8" height="26" fill="#ddcc88" />
  <rect x="780" y="712" width="8" height="26" fill="#ddcc88" />

  
  <rect x="500" y="650" width="18" height="18" fill="#cc8844" />
  
  <rect x="498" y="634" width="5" height="18" fill="#ff2200" />
  <rect x="504" y="628" width="5" height="24" fill="#ffcc00" />
  <rect x="510" y="630" width="5" height="22" fill="#ff2200" />
  
  <rect x="496" y="668" width="26" height="34" fill="#663311" />
  
  <rect x="482" y="650" width="14" height="8" fill="#cc8844" />
  <rect x="476" y="640" width="10" height="14" fill="#cc8844" />
  
  <rect x="496" y="702" width="11" height="22" fill="#552211" />
  <rect x="511" y="702" width="11" height="22" fill="#552211" />

  
  <rect x="0" y="780" width="1536" height="244" fill="#1a3a0a" />
  
  <rect x="0" y="780" width="1536" height="20" fill="#228822" />
  <rect x="30" y="800" width="20" height="10" fill="#1d7a1d" opacity="0.5" />
  <rect x="200" y="795" width="16" height="8" fill="#1d7a1d" opacity="0.5" />
  <rect x="450" y="802" width="20" height="10" fill="#1d7a1d" opacity="0.5" />

  
  
  <rect x="0" y="0" width="1536" height="1024" fill="none" stroke="#00ffcc" stroke-width="16" opacity="0.6" />
  <rect x="16" y="16" width="1504" height="992" fill="none" stroke="#00ffcc" stroke-width="6" opacity="0.3" />
  
  <rect x="0" y="0" width="40" height="40" fill="#00ffcc" opacity="0.7" />
  <rect x="1496" y="0" width="40" height="40" fill="#00ffcc" opacity="0.7" />
  <rect x="0" y="984" width="40" height="40" fill="#00ffcc" opacity="0.7" />
  <rect x="1496" y="984" width="40" height="40" fill="#00ffcc" opacity="0.7" />
  
  <rect x="8" y="8" width="16" height="16" fill="#003322" />
  <rect x="1512" y="8" width="16" height="16" fill="#003322" />
  <rect x="8" y="1000" width="16" height="16" fill="#003322" />
  <rect x="1512" y="1000" width="16" height="16" fill="#003322" />

  
  
  <rect x="80" y="820" width="1376" height="170" fill="#000022" opacity="0.85" />
  <rect x="80" y="820" width="1376" height="8" fill="#00ffcc" opacity="0.8" />
  <rect x="80" y="982" width="1376" height="8" fill="#00ffcc" opacity="0.8" />
  <rect x="80" y="820" width="8" height="170" fill="#00ffcc" opacity="0.8" />
  <rect x="1448" y="820" width="8" height="170" fill="#00ffcc" opacity="0.8" />

  
  <text x="768" y="893" font-family="'Courier New', Courier, monospace" font-size="72" font-weight="bold" text-anchor="middle" fill="#ffee00" letter-spacing="4" style="text-rendering:optimizeSpeed">TREATY OF LONG ISLAND</text>

  
  <text x="768" y="967" font-family="'Courier New', Courier, monospace" font-size="72" font-weight="bold" text-anchor="middle" fill="#00ffcc" letter-spacing="4" style="text-rendering:optimizeSpeed">OF THE HOLSTON · 1777</text>

  
  <rect x="100" y="50" width="240" height="70" fill="#000022" opacity="0.8" />
  <rect x="100" y="50" width="240" height="6" fill="#ffee00" />
  <rect x="100" y="114" width="240" height="6" fill="#ffee00" />
  <rect x="100" y="50" width="6" height="70" fill="#ffee00" />
  <rect x="334" y="50" width="6" height="70" fill="#ffee00" />
  <text x="220" y="95" font-family="'Courier New', Courier, monospace" font-size="32" font-weight="bold" text-anchor="middle" fill="#ffee00" letter-spacing="2">JULY 20, 1777</text>

  
  <rect x="100" y="136" width="280" height="54" fill="#000022" opacity="0.8" />
  <rect x="100" y="136" width="280" height="5" fill="#00ffcc" />
  <rect x="100" y="185" width="280" height="5" fill="#00ffcc" />
  <rect x="100" y="136" width="5" height="54" fill="#00ffcc" />
  <rect x="375" y="136" width="5" height="54" fill="#00ffcc" />
  <text x="240" y="171" font-family="'Courier New', Courier, monospace" font-size="22" text-anchor="middle" fill="#00ffcc" letter-spacing="1">HOLSTON RIVER · TENNESSEE</text>

  
  
  <rect x="1100" y="60" width="200" height="22" fill="#110011" />
  <rect x="1100" y="60" width="200" height="22" fill="none" stroke="#ff4444" stroke-width="3" />
  <rect x="1103" y="63" width="160" height="16" fill="#ff2200" />
  <rect x="1263" y="63" width="34" height="16" fill="#330000" />
  <text x="1100" y="106" font-family="'Courier New', Courier, monospace" font-size="18" fill="#ff4444" letter-spacing="1">LAND CEDED: ████████░░</text>

  
  <text x="1100" y="140" font-family="'Courier New', Courier, monospace" font-size="18" fill="#00ff44" letter-spacing="1">STATUS: TREATY SIGNED ✓</text>

  
  <text x="1100" y="174" font-family="'Courier New', Courier, monospace" font-size="18" fill="#ff8800" letter-spacing="1">DRAGGING CANOE: REFUSED</text>

  
  <rect width="1536" height="1024" fill="url(#crtGlow)" />
  <rect width="1536" height="1024" fill="url(#scanlines)" opacity="0.5" />

</svg>